{"title":"Double Indemnity 1944 HDTV 720p x264 AAC - PRiSTiNE [P2PDL]","uid":8090709,"size":511069328,"categoryP":"video","categoryS":"hd___movies","magnet":"?xt=urn:btih:c30636ae6ceab852251a809673de7dbfe0f749fe&amp;dn=Double+Indemnity+1944+HDTV+720p+x264+AAC+-+PRiSTiNE+%5BP2PDL%5D&amp;tr=udp%3A%2F%2Ftracker.openbittorrent.com%3A80&amp;tr=udp%3A%2F%2Fopen.demonii.com%3A1337&amp;tr=udp%3A%2F%2Ftracker.coppersurfer.tk%3A6969&amp;tr=udp%3A%2F%2Fexodus.desync.com%3A6969","seeders":3,"leechers":2,"uploader":"Vitamin_X","files":-1,"time":1359712674,"description":"_________________________  Visit us at _________________________\n  &lt;a href=&quot;\nhttp://p2pdl.com&quot; rel=&quot;nofollow&quot; target=&quot;_NEW&quot;&gt;\nhttp://p2pdl.com&lt;/a&gt;  ____________________________ &lt;a href=&quot; http://p2pdl.com&quot; rel=&quot;nofollow&quot; target=&quot;_NEW&quot;&gt; http://p2pdl.com&lt;/a&gt;\n\n &lt;a href=&quot;\nhttp://www.shotpix.com/images/84546799361769967918.jpg&quot; rel=&quot;nofollow&quot; target=&quot;_NEW&quot;&gt;\nhttp://www.shotpix.com/images/84546799361769967918.jpg&lt;/a&gt;\n\n\nDouble Indemnity 1944 HDTVRip 720p x264 AAC - PRiSTiNE [P2PDL]\n\t\t\t\t\nGenre: Crime | Drama | Film-Noir | Thriller\nAn insurance rep lets himself be talked into a murder/insurance fraud scheme that arouses an insurance investigator's suspicions.\nDirector: Billy Wilder\nStars: Fred MacMurray, Barbara Stanwyck, Edward G. Robinson\nRated: N/A\n\n  &lt;a href=&quot;\nhttp://www.imdb.com/title/tt0036775/&quot; rel=&quot;nofollow&quot; target=&quot;_NEW&quot;&gt;\nhttp://www.imdb.com/title/tt0036775/&lt;/a&gt;\n &lt;a href=&quot;\nhttp://www.rottentomatoes.com/m/double_indemnity/&quot; rel=&quot;nofollow&quot; target=&quot;_NEW&quot;&gt;\nhttp://www.rottentomatoes.com/m/double_indemnity/&lt;/a&gt;\n\n\nGeneral\nFormat                         : MPEG-4\nFormat profile                 : Base Media / Version 2\nCodec ID                       : mp42\nFile size                      : 480 MiB\nDuration                       : 1h 43mn\nOverall bit rate mode          : Variable\nOverall bit rate               : 651 Kbps\nMovie name                     : Double Indemnity 1944 HDTVRip 720p x264 AAC - PRiSTiNE [P2PDL]\n\nSource                         : 720p.HDTV.x264-x0r (Thanks)\n\nVideo\nFormat                         : AVC\nWidth                          : 960 pixels\nHeight                         : 720 pixels\nDisplay aspect ratio           : 4:3\nFrame rate mode                : Variable\nFrame rate                     : 25.000 fps\nStream size                    : 406 MiB (84%)\nWriting library                : x264 core 128\n\nAudio\nFormat                         : AAC\nBit rate                       : 96.0 Kbps\nSampling rate                  : 48.0 KHz\nStream size                    : 70.9 MiB (15%)\nLanguage                       : English\n\nSubtitle                       : Yes [Muxed]( English)\n\n\nScreens:\n &lt;a href=&quot;\nhttp://www.shotpix.com/images/69799887280378611464.jpg&quot; rel=&quot;nofollow&quot; target=&quot;_NEW&quot;&gt;\nhttp://www.shotpix.com/images/69799887280378611464.jpg&lt;/a&gt; &lt;a href=&quot;\nhttp://www.shotpix.com/images/18566557137001495529.jpg&quot; rel=&quot;nofollow&quot; target=&quot;_NEW&quot;&gt;\nhttp://www.shotpix.com/images/18566557137001495529.jpg&lt;/a&gt; &lt;a href=&quot;\nhttp://www.shotpix.com/images/83319346398584904987.jpg&quot; rel=&quot;nofollow&quot; target=&quot;_NEW&quot;&gt;\nhttp://www.shotpix.com/images/83319346398584904987.jpg&lt;/a&gt; &lt;a href=&quot;\nhttp://www.shotpix.com/images/32930028152807595186.jpg&quot; rel=&quot;nofollow&quot; target=&quot;_NEW&quot;&gt;\nhttp://www.shotpix.com/images/32930028152807595186.jpg&lt;/a&gt; &lt;a href=&quot;\nhttp://www.shotpix.com/images/80414593975231620000.jpg&quot; rel=&quot;nofollow&quot; target=&quot;_NEW&quot;&gt;\nhttp://www.shotpix.com/images/80414593975231620000.jpg&lt;/a&gt;\n\n\nThumbs:\n &lt;a href=&quot;\nhttp://www.shotpix.com/images/86886238860392736615.jpg&quot; rel=&quot;nofollow&quot; target=&quot;_NEW&quot;&gt;\nhttp://www.shotpix.com/images/86886238860392736615.jpg&lt;/a&gt;\n\n----------------------------------------------------------------------------------------------------\n\n\nRecommend to you to use latest version of VLC player. Install K-Lite Codec Pack or shark007 codecs\nin case of any kind of problem in playback (For non-VLC Media Player users). Alternatively, install\nCore AVC codecs, the fastest decoder that there is coupled with Community Center Codec Pack and play\non Windows Media Player Classic. Check sample to be sure.\nEnjoy!\n\nGreets to: VYTO, a2zRG, MusiK_KinG, Neon, Kuroyukihime, TorDigger, Ash968, StyLishSaLH and staff members at\nExtraTorrent, TPB, H33T, KAT, 1337x, PublicHD, Ahashare, BTScene, SilverTorrent, LimeTorrents, TorrentMafia,\nP2PDL, and all others.\n\nEncoder Notes: Looking For Early Access To Anything You Can Provide DVDScr, R5, DVDR, BluRay, Direct\nAudio, Early Music Releases, Seedboxes, Dedicated Servers anything u can provide, Advance / Promo CDs/\nDVDs. If You Got anything to offer contact me at &quot;&lt;a class=&quot;__cf_email__&quot; href=&quot;/cdn-cgi/l/email-protection&quot; data-cfemail=&quot;74040613341c01071c5a171b19&quot;&gt;[email&amp;#160;protected]&lt;/a&gt;&lt;script cf-hash='f9e31' type=&quot;text/javascript&quot;&gt;\n/* &lt;![CDATA[ */!function(){try{var t=&quot;currentScript&quot;in document?document.currentScript:function(){for(var t=document.getElementsByTagName(&quot;script&quot;),e=t.length;e--;)if(t[e].getAttribute(&quot;cf-hash&quot;))return t[e]}();if(t&amp;&amp;t.previousSibling){var e,r,n,i,c=t.previousSibling,a=c.getAttribute(&quot;data-cfemail&quot;);if(a){for(e=&quot;&quot;,r=parseInt(a.substr(0,2),16),n=2;a.length-n;n+=2)i=parseInt(a.substr(n,2),16)^r,e+=String.fromCharCode(i);e=document.createTextNode(e),c.parentNode.replaceChild(e,c)}}}catch(u){}}();/* ]]&gt; */&lt;/script&gt;&quot;.","torrent":{"xt":"urn:btih:c30636ae6ceab852251a809673de7dbfe0f749fe","amp;dn":"Double+Indemnity+1944+HDTV+720p+x264+AAC+-+PRiSTiNE+%5BP2PDL%5D","amp;tr":["udp%3A%2F%2Ftracker.openbittorrent.com%3A80","udp%3A%2F%2Fopen.demonii.com%3A1337","udp%3A%2F%2Ftracker.coppersurfer.tk%3A6969","udp%3A%2F%2Fexodus.desync.com%3A6969"],"infoHash":"c30636ae6ceab852251a809673de7dbfe0f749fe","infoHashBuffer":{"type":"Buffer","data":[195,6,54,174,108,234,184,82,37,26,128,150,115,222,125,191,224,247,73,254]},"announce":[],"urlList":[]}}